:FULLY-SPECIFIED
:FORCE-ALL-JOINTS-BE-3DOF
:DEGREES
1733
root -5.16483 15.6496 27.266 905.775 -17.2443 188.247
lfemur -48.0062 13.9098 -19.7242
ltibia 59.4337 0 0
lfoot -19.561 25.9316 0
ltoes -17.534 0 0
rfemur -24.8785 -15.9049 17.3043
rtibia 67.0409 0 0
rfoot -11.7413 -28.2993 0
rtoes 17.3858 0 0
lowerback 16.3959 1.6383 -6.18212
upperback -0.395304 1.25524 2.84779
thorax -9.85469 1.00053 6.31236
lowerneck 5.82441 -15.7987 -16.8652
upperneck -3.79708 -22.8214 24.093
head 2.79603 -11.9469 8.9995
lclavicle -1.74727e-14 -1.24125e-14 0
lhumerus -45.9447 -45.3173 117.1
lradius 95.2122 0 0
lwrist 43.7918 0 0
lhand -4.25425 40.7596 0
lfingers 7.12502 0 0
lthumb 21.5093 69.5788 0
rclavicle -1.74727e-14 -1.24125e-14 0
rhumerus 45.4154 39.7617 -25.8393
rradius 126.357 0 0
rwrist -19.6787 0 0
rhand 11.1655 -25.801 0
rfingers 7.12502 0 0
rthumb 36.2306 -52.0574 0
1734
root -5.08861 15.6614 27.3418 905.861 -12.1957 188.323
lfemur -47.3129 10.4416 -17.0455
ltibia 58.8057 0 0
lfoot -19.4666 22.6011 0
ltoes -23.1903 0 0
rfemur -25.4297 -17.5735 18.1322
rtibia 64.8431 0 0
rfoot -12.836 -29.4041 0
rtoes 18.6493 0 0
lowerback 16.7941 2.04556 -6.46603
upperback -0.213607 1.71526 2.415
thorax -9.94454 1.23424 5.87207
lowerneck 5.6449 -15.5692 -16.9528
upperneck -3.53032 -22.5982 24.3561
head 2.90259 -11.8431 9.09934
lclavicle -1.29448e-14 -1.10537e-14 0
lhumerus -48.6796 -42.2894 116.656
lradius 95.8181 0 0
lwrist 44.5964 0 0
lhand -4.28264 39.2326 0
lfingers 7.12502 0 0
lthumb 21.4821 68.0555 0
rclavicle -1.29448e-14 -1.10537e-14 0
rhumerus 39.2163 41.5555 -29.8673
rradius 127.533 0 0
rwrist -19.0276 0 0
rhand 11.35 -25.5668 0
rfingers 7.12502 0 0
rthumb 36.4053 -51.78 0
1735
root -5.0124 15.6731 27.4175 906.049 -5.5596 188.405
lfemur -46.5427 6.18389 -13.7133
ltibia 57.9548 0 0
lfoot -19.2877 18.5303 0
ltoes -30.0213 0 0
rfemur -25.8974 -19.6893 19.0708
rtibia 61.9591 0 0
rfoot -14.1328 -30.7918 0
rtoes 20.3056 0 0
lowerback 17.2716 2.57867 -6.80895
upperback -0.00261843 2.32537 1.86575
thorax -10.0705 1.54404 5.29705
lowerneck 5.40064 -15.2784 -17.0704
upperneck -3.19114 -22.3157 24.7021
head 3.04335 -11.7114 9.22815
lclavicle -8.78335e-15 -9.56535e-15 0
lhumerus -52.3351 -38.4752 116.287
lradius 96.5968 0 0
lwrist 45.7 0 0
lhand -4.24825 37.298 0
lfingers 7.12502 0 0
lthumb 21.5153 66.1193 0
rclavicle -8.78335e-15 -9.56535e-15 0
rhumerus 31.4258 43.8419 -34.9028
rradius 129.087 0 0
rwrist -18.176 0 0
rhand 11.5576 -25.2549 0
rfingers 7.12502 0 0
rthumb 36.602 -51.4195 0
1736
root -4.93618 15.6849 27.4933 906.356 2.88088 188.491
lfemur -45.6956 1.05062 -9.65195
ltibia 56.8486 0 0
lfoot -19.0087 13.6404 0
ltoes -38.1437 0 0
rfemur -26.2516 -22.3076 20.1245
rtibia 58.2955 0 0
rfoot -15.649 -32.4962 0
rtoes 22.4081 0 0
lowerback 17.8359 3.25463 -7.21675
upperback 0.239642 3.10647 1.18556
thorax -10.2382 1.94052 4.56917
lowerneck 5.0822 -14.9186 -17.2223
upperneck -2.77047 -21.9667 25.1424
head 3.22302 -11.5482 9.38972
lclavicle -5.1684e-15 -7.95139e-15 0
lhumerus -57.0416 -33.7796 116.02
lradius 97.5709 0 0
lwrist 47.1465 0 0
lhand -4.13731 34.9056 0
lfingers 7.12502 0 0
lthumb 21.6221 63.7184 0
rclavicle -5.1684e-15 -7.95139e-15 0
rhumerus 21.8527 46.6831 -41.0646
rradius 131.07 0 0
rwrist -17.0968 0 0
rhand 11.7892 -24.8544 0
rfingers 7.12502 0 0
rthumb 36.8213 -50.9649 0
1737
root -4.87736 15.6795 27.5047 906.342 5.06168 188.481
lfemur -44.9981 0.347238 -8.9804
ltibia 56.7032 0 0
lfoot -18.8029 13.1619 0
ltoes -39.0518 0 0
rfemur -26.5241 -22.5945 20.3514
rtibia 57.8225 0 0
rfoot -15.9108 -32.326 0
rtoes 21.8348 0 0
lowerback 17.8629 3.40378 -7.29948
upperback 0.256681 3.27812 1.02636
thorax -10.252 2.02348 4.39553
lowerneck 4.93479 -14.8034 -17.1906
upperneck -2.622 -21.7856 25.053
head 3.24123 -11.438 9.36617
lclavicle -8.34701e-15 -8.90324e-15 0
lhumerus -57.9568 -32.5233 115.501
lradius 97.9514 0 0
lwrist 47.094 0 0
lhand -4.43142 34.6631 0
lfingers 7.12502 0 0
lthumb 21.3391 63.5017 0
rclavicle -8.34701e-15 -8.90324e-15 0
rhumerus 19.672 46.1726 -42.2157
rradius 129.184 0 0
rwrist -14.8199 0 0
rhand 10.8107 -25.1165 0
rfingers 7.12502 0 0
rthumb 35.8824 -51.3357 0
1738
root -4.81855 15.6741 27.5161 906.333 6.27549 188.474
lfemur -44.5968 -0.00591938 -8.6298
ltibia 56.6269 0 0
lfoot -18.6801 12.9441 0
ltoes -39.4789 0 0
rfemur -26.6744 -22.7346 20.4689
rtibia 57.5784 0 0
rfoot -16.0421 -32.2024 0
rtoes 21.469 0 0
lowerback 17.8712 3.48613 -7.34337
upperback 0.263078 3.37328 0.939208
thorax -10.2591 2.06926 4.29948
lowerneck 4.8505 -14.7385 -17.1708
upperneck -2.53875 -21.6813 24.9961
head 3.25015 -11.374 9.35087
lclavicle -1.00539e-14 -9.35564e-15 0
lhumerus -58.4573 -31.8303 115.203
lradius 98.1671 0 0
lwrist 47.0505 0 0
lhand -4.60461 34.5438 0
lfingers 7.12502 0 0
lthumb 21.1725 63.3975 0
rclavicle -1.00539e-14 -9.35564e-15 0
rhumerus 18.4871 45.8349 -42.8264
rradius 128.039 0 0
rwrist -13.4716 0 0
rhand 10.2235 -25.2782 0
rfingers 7.12502 0 0
rthumb 35.319 -51.5631 0
1739
root -4.75973 15.6687 27.5274 906.327 6.83275 188.466
lfemur -44.3804 -0.0741311 -8.52559
ltibia 56.603 0 0
lfoot -18.6033 12.9627 0
ltoes -39.4833 0 0
rfemur -26.7399 -22.7507 20.5014
rtibia 57.513 0 0
rfoot -16.0672 -32.0747 0
rtoes 21.1869 0 0
lowerback 17.8589 3.52234 -7.35824
upperback 0.258453 3.41601 0.90276
thorax -10.2608 2.08933 4.25685
lowerneck 4.80628 -14.7067 -17.1564
upperneck -2.49899 -21.6247 24.9525
head 3.25127 -11.3381 9.33845
lclavicle -1.06851e-14 -9.37373e-15 0
lhumerus -58.6653 -31.5274 115.046
lradius 98.2758 0 0
lwrist 46.9959 0 0
lhand -4.70736 34.5273 0
lfingers 7.12502 0 0
lthumb 21.0736 63.3899 0
rclavicle -1.06851e-14 -9.37373e-15 0
rhumerus 18.0138 45.5488 -43.0332
rradius 127.277 0 0
rwrist -12.6538 0 0
rhand 9.8495 -25.3911 0
rfingers 7.12502 0 0
rthumb 34.9603 -51.7186 0
1740
root -4.70092 15.6633 27.5388 906.323 7.04391 188.454
lfemur -44.2378 0.0773257 -8.59325
ltibia 56.6152 0 0
lfoot -18.5359 13.1937 0
ltoes -39.123 0 0
rfemur -26.7581 -22.666 20.4731
rtibia 57.5764 0 0
rfoot -16.0103 -31.8926 0
rtoes 20.8643 0 0
lowerback 17.8236 3.53304 -7.35391
upperback 0.242427 3.4304 0.895678
thorax -10.2587 2.09513 4.24344
lowerneck 4.77911 -14.691 -17.1411
upperneck -2.48105 -21.5868 24.9031
head 3.24609 -11.3124 9.32357
lclavicle -1.06363e-14 -9.02267e-15 0
lhumerus -58.703 -31.4415 114.948
lradius 98.3353 0 0
lwrist 46.9097 0 0
lhand -4.79018 34.5933 0
lfingers 7.12502 0 0
lthumb 20.9939 63.4628 0
rclavicle -1.06363e-14 -9.02267e-15 0
rhumerus 17.9679 45.193 -42.9729
rradius 126.542 0 0
rwrist -11.9687 0 0
rhand 9.51073 -25.5069 0
rfingers 7.12502 0 0
rthumb 34.6354 -51.8743 0
1741
root -4.6421 15.6579 27.5502 906.316 7.21941 188.436
lfemur -44.0578 0.383174 -8.75825
ltibia 56.6469 0 0
lfoot -18.4409 13.6131 0
ltoes -38.4562 0 0
rfemur -26.7665 -22.5034 20.4084
rtibia 57.7186 0 0
rfoot -15.8956 -31.6053 0
rtoes 20.3773 0 0
lowerback 17.7633 3.53886 -7.34019
upperback 0.214618 3.44053 0.896622
thorax -10.254 2.09813 4.2351
lowerneck 4.74595 -14.6741 -17.1182
upperneck -2.4632 -21.5386 24.8285
head 3.23609 -11.2786 9.30088
lclavicle -1.03036e-14 -8.3676e-15 0
lhumerus -58.6927 -31.3993 114.827
lradius 98.4032 0 0
lwrist 46.7716 0 0
lhand -4.90355 34.7216 0
lfingers 7.12502 0 0
lthumb 20.8848 63.6005 0
rclavicle -1.03036e-14 -8.3676e-15 0
rhumerus 18.0651 44.6461 -42.7818
rradius 125.48 0 0
rwrist -11.0186 0 0
rhand 9.02915 -25.6773 0
rfingers 7.12502 0 0
rthumb 34.1737 -52.1017 0
1742
root -4.58328 15.6525 27.5616 906.304 7.66969 188.408
lfemur -43.729 0.778135 -8.94603
ltibia 56.6815 0 0
lfoot -18.2816 14.1967 0
ltoes -37.541 0 0
rfemur -26.8026 -22.2858 20.3315
rtibia 57.8896 0 0
rfoot -15.7472 -31.1626 0
rtoes 19.6018 0 0
lowerback 17.6756 3.56044 -7.32691
upperback 0.174647 3.47049 0.884252
thorax -10.2482 2.10977 4.20763
lowerneck 4.68378 -14.639 -17.0815
upperneck -2.42375 -21.4511 24.7097
head 3.22276 -11.2187 9.26503
lclavicle -1.00828e-14 -7.47365e-15 0
lhumerus -58.7564 -31.2277 114.602
lradius 98.5374 0 0
lwrist 46.5612 0 0
lhand -5.09797 34.8918 0
lfingers 7.12502 0 0
lthumb 20.6976 63.7868 0
rclavicle -1.00828e-14 -7.47365e-15 0
rhumerus 18.0213 43.7868 -42.5967
rradius 123.733 0 0
rwrist -9.40545 0 0
rhand 8.22673 -25.9538 0
rfingers 7.12502 0 0
rthumb 33.4043 -52.4729 0
1743
root -4.52447 15.6472 27.5729 906.285 8.70521 188.367
lfemur -43.1405 1.19693 -9.08208
ltibia 56.7026 0 0
lfoot -18.021 14.9205 0
ltoes -36.4354 0 0
rfemur -26.904 -22.0363 20.2669
rtibia 58.0394 0 0
rfoot -15.5894 -30.5137 0
rtoes 18.4139 0 0
lowerback 17.5585 3.61843 -7.32388
upperback 0.122133 3.54435 0.837229
thorax -10.2426 2.14151 4.13687
lowerneck 4.56957 -14.5686 -17.0243
upperneck -2.341 -21.2953 24.5274
head 3.20759 -11.1147 9.21066
lclavicle -1.03697e-14 -6.40599e-15 0
lhumerus -59.0165 -30.7536 114.192
lradius 98.7956 0 0
lwrist 46.2582 0 0
lhand -5.42392 35.0836 0
lfingers 7.12502 0 0
lthumb 20.3839 64.006 0
rclavicle -1.03697e-14 -6.40599e-15 0
rhumerus 17.5523 42.4939 -42.554
rradius 120.947 0 0
rwrist -6.73148 0 0
rhand 6.92545 -26.3883 0
rfingers 7.12502 0 0
rthumb 32.1565 -53.0594 0
1744
root -4.46565 15.6418 27.5843 906.256 10.6364 188.31
lfemur -42.1808 1.57429 -9.09186
ltibia 56.6935 0 0
lfoot -17.6224 15.7604 0
ltoes -35.1977 0 0
rfemur -27.108 -21.7778 20.2389
rtibia 58.118 0 0
rfoot -15.4465 -29.6081 0
rtoes 16.6895 0 0
lowerback 17.4098 3.73344 -7.34092
upperback 0.0566962 3.6862 0.734212
thorax -10.2389 2.20482 3.99864
lowerneck 4.38028 -14.4456 -16.9402
upperneck -2.19325 -21.0422 24.2623
head 3.19208 -10.9483 9.13242
lclavicle -1.15604e-14 -5.22975e-15 0
lhumerus -59.5951 -29.8037 113.514
lradius 99.2356 0 0
lwrist 45.8422 0 0
lhand -5.93191 35.2766 0
lfingers 7.12502 0 0
lthumb 19.895 64.2421 0
rclavicle -1.15604e-14 -5.22975e-15 0
rhumerus 16.3738 40.6459 -42.7905
rradius 116.764 0 0
rwrist -2.59882 0 0
rhand 4.94728 -27.0323 0
rfingers 7.12502 0 0
rthumb 30.2594 -53.9332 0
1745
root -4.40683 15.6364 27.5957 906.215 13.7737 188.234
lfemur -40.7389 1.84493 -8.90082
ltibia 56.6379 0 0
lfoot -17.0488 16.6922 0
ltoes -33.886 0 0
rfemur -27.4523 -21.5334 20.2717
rtibia 58.0754 0 0
rfoot -15.3425 -28.3955 0
rtoes 14.3047 0 0
lowerback 17.2274 3.92613 -7.38784
upperback -0.0220438 3.92012 0.553862
thorax -10.2382 2.31114 3.76876
lowerneck 4.09288 -14.253 -16.8228
upperneck -1.95879 -20.6627 23.8954
head 3.1777 -10.7016 9.02496
lclavicle -1.40506e-14 -4.01008e-15 0
lhumerus -60.6144 -28.205 112.487
lradius 99.915 0 0
lwrist 45.2928 0 0
lhand -6.67243 35.4507 0
lfingers 7.12502 0 0
lthumb 19.1824 64.4791 0
rclavicle -1.40506e-14 -4.01008e-15 0
rhumerus 14.2017 38.1217 -43.4426
rradius 110.829 0 0
rwrist 3.3904 0 0
rhand 2.1142 -27.9375 0
rfingers 7.12502 0 0
rthumb 27.5423 -55.1661 0
